# xmcd
#
# Track frame offsets:
#	182
#	15552
#	28482
#	45845
#	59785
#	75085
#	84560
#	99267
#	111802
#	127140
#	146097
#	159090
#	182030
#	193682
#	207955
#	221535
#	236745
#	251537
#	264755
#	279355
#	293787
#	314005
#	329475
#
# Disc length: 4559 seconds
#
# Revision: 4
# Processed by: cddbd v1.5.2PL0 Copyright (c) Steve Scherf et al.
# Submitted via: MusicWizard 7.2.0
#
DISCID=4911cd17
DTITLE=Various Artist - Alive And Kickin' - Big Band Sound At M-G-M
DYEAR=1997
DGENRE=Soundtrack
TTITLE0=Tommy Dorsey - Opus One
TTITLE1=Tommy Dorsey - Irresistible You
TTITLE2=Jimmy Dorsey - One O'Clock Jump
TTITLE3=Harry James - I Cried For You
TTITLE4=Tommy Dorsey - I Fell In LOve With The Leader Of The Band
TTITLE5=Tex Beneke - Chattanooga Choo Choo
TTITLE6=Tommy Dorsey - Hawaiian War Chant
TTITLE7=Artie Shaw - I'm Yours
TTITLE8=Guy Lomardo - Love On A Greyhound Bus
TTITLE9=Vaughn Monroe - I Like To Recognize The Tun
TTITLE10=Tommy Dorsey - Song Of India
TTITLE11=Jimmy Dorsey - Star Eyes
TTITLE12=Tommy Dorsey - Do I Love You
TTITLE13=Artie Shaw - The Donkey Serenade
TTITLE14=Bob Crosby - In A Little Spanish Town
TTITLE15=Tommy Dorsey - I Should Care
TTITLE16=Jimmy Dorsey - Shorter Than Me
TTITLE17=Tommy Dorsey - Blue Skies
TTITLE18=Artie Shaw - At Sundown
TTITLE19=Harry James - Alive And Kickin'
TTITLE20=Kay Kyser - Missisippi Dream Boat
TTITLE21=Jimmy Dorsey - Lord And Lady Gate
TTITLE22=Harry James - Trumpet Blues And Cantabile
EXTD=YEAR: 1997
EXTT0=
EXTT1=
EXTT2=
EXTT3=
EXTT4=
EXTT5=
EXTT6=
EXTT7=
EXTT8=
EXTT9=
EXTT10=
EXTT11=
EXTT12=
EXTT13=
EXTT14=
EXTT15=
EXTT16=
EXTT17=
EXTT18=
EXTT19=
EXTT20=
EXTT21=
EXTT22=
PLAYORDER=
